<svg fill="none" width="70%" stroke-width="10" height="70%" viewBox="0 0 32 32" xmlns="http://www.w3.org/2000/svg"><path d="M24.742 7.268a11.9 11.9 0 0 0-8.739-3.563h.012c-.072-.002-.156-.002-.241-.002a11.92 11.92 0 0 0-8.515 3.564l-.001.001a11.88 11.88 0 0 0-3.563 8.738v-.012l-.002.223c0 3.329 1.363 6.339 3.562 8.503l.002.002h.001a11.92 11.92 0 0 0 8.77 3.56h-.013l.128.001c6.717 0 12.162-5.445 12.162-12.162l-.001-.133v.007l.002-.223c0-3.328-1.364-6.338-3.563-8.501zm-8.726 18.484-.222.003a9.34 9.34 0 0 1-6.7-2.821l-.002-.002a9.3 9.3 0 0 1-2.835-6.95v.012l-.003-.236A9.3 9.3 0 0 1 9.09 9.06l.002-.002a9.34 9.34 0 0 1 6.935-2.823h-.011a9.28 9.28 0 0 1 6.904 2.819l.002.002a9.32 9.32 0 0 1 2.822 6.951v-.012a9.32 9.32 0 0 1-2.82 6.936l-.002.002a9.28 9.28 0 0 1-6.918 2.82z"/></svg>